<svg viewBox="0 0 128 128" xmlns="http://www.w3.org/2000/svg">
  <!-- Fond du personnage -->
  <rect x="32" y="16" width="64" height="96" rx="32" fill="#ffcd75" />
  
  <!-- Robe -->
  <rect x="32" y="64" width="64" height="48" rx="16" fill="#5d275d" />
  
  <!-- Visage -->
  <circle cx="64" cy="48" r="24" fill="#f4f4f4" />
  
  <!-- Yeux -->
  <circle cx="56" cy="44" r="4" fill="#1a1c2c" />
  <circle cx="72" cy="44" r="4" fill="#1a1c2c" />
  
  <!-- Barbe -->
  <path d="M48 56 Q64 72 80 56" stroke="#e8e8e8" stroke-width="8" fill="none" />
  <rect x="44" y="56" width="40" height="24" fill="#e8e8e8" rx="8" />
  
  <!-- Chapeau -->
  <path d="M32 32 L64 8 L96 32" fill="#41a6f6" />
  <ellipse cx="64" cy="32" rx="32" ry="8" fill="#41a6f6" />
  
  <!-- Étoiles sur le chapeau -->
  <path d="M56 24 L58 20 L60 24 L64 22 L60 26 L64 28 L60 30 L58 34 L56 30 L52 28 L56 26 L52 24 Z" fill="#ffcd75" />
  <path d="M76 18 L78 14 L80 18 L84 16 L80 20 L84 22 L80 24 L78 28 L76 24 L72 22 L76 20 L72 18 Z" fill="#ffcd75" />
  
  <!-- Détails de la robe -->
  <rect x="59" y="64" width="10" height="24" fill="#b13e53" />
  <circle cx="64" cy="96" r="8" fill="#b13e53" />
  
  <!-- Bâton de sagesse -->
  <rect x="96" y="32" width="4" height="80" fill="#a7f070" />
  <circle cx="98" cy="24" r="8" fill="#ef7d57" />
</svg>